#!OML:ASF E:\Style4\Style4.ASF
:FULLY-SPECIFIED
:DEGREES
707
root 0.0220069 16.9509 -1.95059 9.71026 -3.2102 3.18227
lowerback 9.42398 0.31535 -3.65371
upperback 1.36042 -0.0465617 -2.17958
thorax -3.87016 0.0142972 -0.202394
lowerneck 3.66065 -2.46088 -6.62945
upperneck 2.21882 -3.54159 3.73259
head 0.265255 -1.82323 2.34357
rclavicle 1.78906e-015 -4.77083e-015
rhumerus -0.541098 39.4997 3.23593
rradius 59.4752
rwrist 5.85994
rhand -20.4101 39.7825
rfingers 7.12502
rthumb 5.94384 9.88584
lclavicle 1.78906e-015 -4.77083e-015
lhumerus -33.812 4.35705 51.1014
lradius 73.4077
lwrist 48.3253
lhand -5.87618 20.5122
lfingers 7.12502
lthumb 19.9514 49.508
rfemur -35.6277 1.06923 14.2405
rtibia 53.2827
rfoot -25.1426 -14.5293
rtoes -14.4799
lfemur -32.8406 0.365562 -22.9307
ltibia 50.7663
lfoot -26.4265 8.16545
ltoes -15.7855
708
root 0.0217635 16.9572 -1.95057 9.72041 -3.23617 3.27338
lowerback 9.35799 0.277056 -3.76294
upperback 1.36796 -0.105486 -2.20465
thorax -3.82404 -0.0141444 -0.159488
lowerneck 3.7153 -2.43273 -6.69793
upperneck 2.19503 -3.51002 3.75596
head 0.248363 -1.80822 2.36495
rclavicle 3.97569e-015 8.74653e-015
rhumerus 0.247644 40.8446 4.40748
rradius 59.7538
rwrist 5.95462
rhand -20.2888 40.087
rfingers 7.12502
rthumb 6.06103 10.1937
lclavicle 3.97569e-015 8.74653e-015
lhumerus -33.8641 4.26234 51.2415
lradius 73.4974
lwrist 48.3703
lhand -6.08038 20.6852
lfingers 7.12502
lthumb 19.7551 49.7013
rfemur -35.619 1.0466 14.1406
rtibia 53.2157
rfoot -25.166 -14.4436
rtoes -14.4822
lfemur -32.7639 0.384003 -23.0308
ltibia 50.6099
lfoot -26.3827 8.05344
ltoes -15.3689
709
root 0.0221479 16.9626 -1.95106 9.70389 -3.2536 3.37934
lowerback 9.32082 0.226884 -3.86393
upperback 1.38924 -0.181333 -2.25595
thorax -3.77917 -0.051381 -0.146518
lowerneck 3.68782 -2.38748 -6.73636
upperneck 2.22772 -3.45023 3.79757
head 0.261515 -1.77889 2.38494
rclavicle 0 -1.47101e-014
rhumerus 1.18683 42.2646 5.59704
rradius 59.9149
rwrist 6.01761
rhand -20.2294 40.6276
rfingers 7.12502
rthumb 6.11832 10.736
lclavicle 0 -1.47101e-014
lhumerus -33.9302 4.24348 51.3429
lradius 73.5564
lwrist 48.2828
lhand -6.23347 20.5762
lfingers 7.12502
lthumb 19.6079 49.6074
rfemur -35.59 0.97981 14.0226
rtibia 53.1759
rfoot -25.2305 -14.2622
rtoes -14.1611
lfemur -32.68 0.381013 -23.1472
ltibia 50.4692
lfoot -26.3301 8.05031
ltoes -15.4682
710
root 0.0230711 16.968 -1.94857 9.64179 -3.31485 3.42326
lowerback 9.32165 0.211011 -3.87601
upperback 1.41235 -0.20495 -2.3092
thorax -3.75514 -0.0637593 -0.192043
lowerneck 3.65477 -2.36783 -6.70334
upperneck 2.28643 -3.42108 3.7583
head 0.282705 -1.76437 2.36468
rclavicle -6.95746e-016 2.14687e-014
rhumerus 2.02279 43.6811 6.66035
rradius 60.1033
rwrist 6.21696
rhand -20.3995 41.0783
rfingers 7.12502
rthumb 5.95413 11.182
lclavicle -6.95746e-016 2.14687e-014
lhumerus -34.0571 4.15824 51.4634
lradius 73.6931
lwrist 48.1963
lhand -5.81255 20.2561
lfingers 7.12502
lthumb 20.0125 49.2455
rfemur -35.4549 0.968514 13.9677
rtibia 53.1392
rfoot -25.2656 -14.0215
rtoes -13.7389
lfemur -32.5374 0.422998 -23.2033
ltibia 50.3542
lfoot -26.3414 8.08582
ltoes -15.5968
711
root 0.0237058 16.9711 -1.94696 9.55632 -3.36416 3.40542
lowerback 9.36899 0.220818 -3.80788
upperback 1.43761 -0.189004 -2.3607
thorax -3.75604 -0.0572835 -0.285745
lowerneck 3.65875 -2.39592 -6.61341
upperneck 2.28921 -3.45471 3.67458
head 0.281517 -1.78038 2.32049
rclavicle 5.56597e-015 1.98785e-015
rhumerus 2.41197 44.7828 7.31661
rradius 60.4377
rwrist 6.73557
rhand -20.5853 41.2671
rfingers 7.12502
rthumb 5.77474 11.3657
lclavicle 5.56597e-015 1.98785e-015
lhumerus -34.1112 4.05883 51.579
lradius 73.887
lwrist 48.1308
lhand -4.98287 20.3586
lfingers 7.12502
lthumb 20.8099 49.2627
rfemur -35.2805 1.01655 13.9858
rtibia 53.0724
rfoot -25.2439 -13.8776
rtoes -13.3395
lfemur -32.371 0.473076 -23.1941
ltibia 50.2616
lfoot -26.3147 8.13758
ltoes -15.6751
712
root 0.0240584 16.9753 -1.94359 9.50373 -3.42421 3.30645
lowerback 9.3828 0.212816 -3.69299
upperback 1.44807 -0.188381 -2.35848
thorax -3.75322 -0.0586131 -0.347903
lowerneck 3.6683 -2.37995 -6.61473
upperneck 2.27318 -3.43346 3.63028
head 0.272847 -1.7696 2.30627
rclavicle -4.07509e-015 1.94809e-014
rhumerus 2.78897 45.7676 7.92632
rradius 60.8723
rwrist 7.27431
rhand -20.7443 41.4151
rfingers 7.12502
rthumb 5.62122 11.5096
lclavicle -4.07509e-015 1.94809e-014
lhumerus -34.165 4.09389 51.6915
lradius 73.9828
lwrist 47.9224
lhand -4.43841 20.5522
lfingers 7.12502
lthumb 21.3329 49.398
rfemur -35.1912 1.12078 14.0864
rtibia 52.954
rfoot -25.2002 -14.0715
rtoes -13.8567
lfemur -32.2336 0.541621 -23.0919
ltibia 50.1736
lfoot -26.291 8.12651
ltoes -15.5046
713
root 0.0246814 16.9809 -1.93859 9.51002 -3.50375 3.32736
lowerback 9.28177 0.202279 -3.72473
upperback 1.46451 -0.199949 -2.37742
thorax -3.67958 -0.0651168 -0.347963
lowerneck 3.63823 -2.34467 -6.66756
upperneck 2.29219 -3.38695 3.65826
head 0.282917 -1.74682 2.32446
rclavicle 2.18663e-015 9.54166e-015
rhumerus 3.15005 46.7496 8.47878
rradius 61.3983
rwrist 7.71103
rhand -20.8685 41.6114
rfingers 7.12502
rthumb 5.50129 11.7028
lclavicle 2.18663e-015 9.54166e-015
lhumerus -34.2043 4.12873 51.8346
lradius 74.049
lwrist 47.7185
lhand -4.11378 20.5468
lfingers 7.12502
lthumb 21.6447 49.3569
rfemur -35.213 1.19273 14.0475
rtibia 52.8425
rfoot -25.0586 -14.4709
rtoes -15.1835
lfemur -32.158 0.611147 -23.1348
ltibia 50.069
lfoot -26.2621 8.20883
ltoes -15.8416
714
root 0.025049 16.986 -1.93299 9.52946 -3.56281 3.44117
lowerback 9.15942 0.209377 -3.81178
upperback 1.48238 -0.194149 -2.44647
thorax -3.59297 -0.062798 -0.371163
lowerneck 3.54519 -2.35203 -6.71158
upperneck 2.39178 -3.39422 3.73266
head 0.332902 -1.75125 2.35497
rclavicle 2.5842e-015 -4.37326e-015
rhumerus 3.19057 47.6209 8.70448
rradius 61.9905
rwrist 8.20327
rhand -20.9968 41.7608
rfingers 7.12502
rthumb 5.37747 11.849
lclavicle 2.5842e-015 -4.37326e-015
lhumerus -34.2378 4.08851 51.9807
lradius 74.1839
lwrist 47.6307
lhand -3.67208 20.3133
lfingers 7.12502
lthumb 22.0688 49.074
rfemur -35.192 1.18125 13.9106
rtibia 52.7828
rfoot -25.0541 -14.4096
rtoes -15.2213
lfemur -32.0864 0.619829 -23.2689
ltibia 49.9506
lfoot -26.2651 8.2221
ltoes -15.9142
715
root 0.0256913 16.9901 -1.92759 9.48521 -3.6093 3.50772
lowerback 9.13031 0.21411 -3.83548
upperback 1.50461 -0.190386 -2.51701
thorax -3.55392 -0.0617073 -0.431401
lowerneck 3.50162 -2.35112 -6.71482
upperneck 2.45142 -3.39162 3.7815
head 0.360039 -1.75033 2.37066
rclavicle 5.96354e-015 -1.15295e-014
rhumerus 3.20231 48.496 8.79876
rradius 62.5088
rwrist 8.57526
rhand -21.092 41.8651
rfingers 7.12502
rthumb 5.28547 11.951
lclavicle 5.96354e-015 -1.15295e-014
lhumerus -34.3227 3.96044 52.076
lradius 74.376
lwrist 47.6053
lhand -3.48856 20.0402
lfingers 7.12502
lthumb 22.245 48.78
rfemur -35.049 1.17214 13.8254
rtibia 52.779
rfoot -25.2074 -13.8825
rtoes -13.6393
lfemur -31.9492 0.628641 -23.349
ltibia 49.8461
lfoot -26.2466 8.12469
ltoes -15.257
716
root 0.0261571 16.9937 -1.92283 9.45263 -3.67861 3.53274
lowerback 9.07087 0.243752 -3.82497
upperback 1.53666 -0.147389 -2.57236
thorax -3.48859 -0.0419217 -0.499548
lowerneck 3.514 -2.37191 -6.68634
upperneck 2.43482 -3.41887 3.7744
head 0.35354 -1.76361 2.36344
rclavicle 3.57812e-015 -5.56597e-015
rhumerus 3.19175 49.4227 8.91268
rradius 63.0183
rwrist 8.82338
rhand -21.1417 42.0713
rfingers 7.12502
rthumb 5.23756 12.156
lclavicle 3.57812e-015 -5.56597e-015
lhumerus -34.3211 3.72166 52.2301
lradius 74.5501
lwrist 47.5638
lhand -3.59281 19.9808
lfingers 7.12502
lthumb 22.1449 48.7325
rfemur -34.9678 1.19924 13.7911
rtibia 52.7822
rfoot -25.2896 -13.6239
rtoes -12.7677
lfemur -31.8445 0.693477 -23.3942
ltibia 49.7671
lfoot -26.1834 8.12835
ltoes -15.11
717
root 0.0251669 16.9955 -1.921 9.47709 -3.67322 3.45521
lowerback 8.99376 0.254818 -3.71215
upperback 1.54079 -0.117808 -2.58878
thorax -3.44224 -0.029219 -0.582961
lowerneck 3.5897 -2.39518 -6.75059
upperneck 2.37312 -3.45724 3.867
head 0.326252 -1.78338 2.40786
rclavicle 1.98785e-015 1.43125e-014
rhumerus 3.1189 50.3482 8.95432
rradius 63.5446
rwrist 8.9646
rhand -21.1111 42.303
rfingers 7.12502
rthumb 5.26711 12.3885
lclavicle 1.98785e-015 1.43125e-014
lhumerus -34.2876 3.45626 52.4299
lradius 74.6904
lwrist 47.5023
lhand -3.74298 20.0894
lfingers 7.12502
lthumb 22.0008 48.8581
rfemur -34.9677 1.19217 13.8893
rtibia 52.7696
rfoot -25.2707 -13.6645
rtoes -13.0243
lfemur -31.8461 0.719698 -23.3091
ltibia 49.7286
lfoot -26.1523 8.19479
ltoes -15.5628
